<?xml version="1.0" standalone="no"?>
<!DOCTYPE svg PUBLIC "-//W3C//DTD SVG 20010904//EN"
 "http://www.w3.org/TR/2001/REC-SVG-20010904/DTD/svg10.dtd">
<svg version="1.0" xmlns="http://www.w3.org/2000/svg"
 width="1024.000000pt" height="1024.000000pt" viewBox="0 0 1024.000000 1024.000000"
 preserveAspectRatio="xMidYMid meet">
<metadata>
Created by potrace 1.14, written by Peter Selinger 2001-2017
</metadata>
<g transform="translate(0.000000,1024.000000) scale(0.100000,-0.100000)"
fill="#000000" stroke="none">
<path d="M1651 8135 c-68 -21 -103 -64 -184 -229 -408 -823 -645 -1305 -652
-1326 -13 -40 -7 -101 16 -146 34 -71 69 -90 269 -148 147 -42 977 -278 990
-281 8 -2 119 -32 245 -68 127 -36 367 -104 535 -152 168 -47 337 -95 375
-106 266 -77 457 -129 474 -129 40 0 98 25 126 54 17 17 143 216 279 441 136
226 252 417 257 425 106 173 159 263 159 266 0 3 18 32 40 64 22 32 40 61 40
64 0 3 42 74 94 158 222 362 417 690 414 693 -1 2 -30 6 -63 10 -33 3 -71 8
-85 10 -14 2 -50 6 -80 9 -30 4 -66 9 -80 11 -14 2 -135 18 -270 35 -135 17
-256 32 -270 35 -14 2 -50 7 -80 10 -30 3 -66 8 -80 10 -14 2 -47 6 -75 10
-88 10 -129 16 -155 20 -14 2 -50 7 -80 10 -30 3 -66 8 -80 10 -14 3 -51 7
-83 10 -32 4 -66 8 -76 10 -10 2 -42 6 -72 9 -49 6 -88 11 -159 21 -14 2 -50
7 -80 10 -63 8 -104 13 -157 20 -54 7 -500 64 -548 70 -83 10 -141 17 -157 20
-9 2 -41 6 -70 9 -29 4 -62 8 -73 10 -11 2 -47 7 -80 10 -33 4 -71 9 -85 11
-14 2 -68 9 -120 15 -52 6 -106 14 -120 16 -61 12 -158 11 -199 -1z"/>
<path d="M8410 8135 c-86 -12 -140 -19 -240 -31 -19 -2 -48 -6 -65 -9 -16 -2
-57 -7 -90 -10 -33 -3 -67 -8 -75 -10 -8 -2 -40 -7 -70 -10 -30 -3 -86 -11
-125 -16 -38 -5 -92 -12 -120 -15 -27 -3 -61 -7 -75 -10 -14 -2 -49 -7 -79
-10 -30 -3 -63 -7 -73 -9 -11 -2 -46 -7 -79 -10 -33 -4 -68 -8 -78 -10 -9 -2
-44 -6 -76 -10 -33 -4 -69 -9 -80 -11 -11 -2 -45 -6 -76 -9 -31 -3 -66 -7 -78
-10 -12 -2 -63 -9 -114 -14 -51 -6 -101 -13 -112 -15 -11 -2 -49 -7 -85 -11
-36 -3 -72 -8 -80 -10 -8 -2 -42 -6 -75 -10 -33 -3 -71 -8 -85 -10 -14 -2 -47
-6 -75 -9 -27 -4 -61 -8 -75 -11 -14 -2 -47 -7 -75 -10 -56 -6 -191 -23 -247
-31 -73 -10 -104 -14 -156 -19 -29 -4 -61 -8 -71 -10 -10 -2 -40 -6 -67 -9
-27 -4 -101 -13 -164 -21 -63 -8 -159 -20 -213 -27 -80 -10 -97 -14 -92 -27 5
-14 96 -165 421 -701 153 -252 277 -457 289 -478 6 -9 102 -169 215 -355 209
-343 235 -387 254 -422 39 -69 89 -137 121 -161 31 -23 47 -28 94 -28 31 1 65
4 76 7 32 9 360 103 610 173 127 36 253 71 280 79 50 15 356 103 385 110 27 8
154 43 250 70 52 15 100 28 105 29 6 2 35 10 65 19 30 9 240 68 465 132 573
161 570 160 615 201 48 44 74 108 68 167 -3 28 -53 141 -145 327 -466 946
-578 1168 -600 1198 -53 71 -140 90 -303 67z"/>
<path d="M5123 6858 c-9 -12 -572 -952 -583 -973 -23 -46 -282 -471 -311 -511
-119 -162 -291 -247 -504 -248 -116 0 -143 4 -295 49 -76 22 -72 21 -105 30
-16 4 -84 23 -150 42 -66 19 -158 45 -205 58 -47 13 -229 65 -405 115 -176 50
-342 97 -370 105 -27 7 -155 43 -283 79 -129 36 -235 66 -236 66 -1 0 -2 -555
-1 -1232 0 -1186 1 -1235 19 -1293 40 -125 149 -239 270 -281 33 -12 481 -128
536 -139 8 -2 53 -13 100 -25 47 -12 92 -23 100 -25 8 -2 116 -29 240 -60 124
-31 232 -58 240 -60 8 -2 62 -15 120 -30 58 -15 112 -28 120 -30 8 -2 80 -20
160 -40 79 -20 153 -39 162 -41 33 -7 52 -12 618 -154 311 -78 579 -144 595
-147 17 -2 46 -8 65 -12 19 -4 79 -6 132 -5 83 2 148 15 425 83 181 45 353 87
383 96 54 15 250 63 281 70 9 2 33 8 55 14 41 11 1074 268 1109 275 11 3 146
37 300 76 154 39 291 73 305 75 86 16 295 77 336 98 105 53 187 147 225 258
l21 64 1 1228 c0 675 -2 1230 -5 1232 -4 4 -177 -42 -373 -100 -27 -8 -171
-48 -320 -90 -148 -42 -292 -83 -320 -91 -27 -9 -57 -18 -65 -19 -15 -4 -410
-116 -695 -197 -125 -36 -152 -40 -255 -41 -282 -2 -446 101 -609 383 -24 41
-54 91 -66 110 -12 19 -177 294 -365 610 -415 696 -381 640 -385 640 -1 0 -7
-6 -12 -12z"/>
</g>
</svg>
